<?xml version="1.0" ?><svg id="Layer_1_1_" style="enable-background:new 0 0 64 64;" version="1.1" viewBox="0 0 64 64" xml:space="preserve" xmlns="http://www.w3.org/2000/svg" xmlns:xlink="http://www.w3.org/1999/xlink"><path d="M6,43c0,7.168,5.832,13,13,13s13-5.832,13-13s-5.832-13-13-13S6,35.832,6,43z M8,43c0-2.905,1.14-5.543,2.986-7.511  l4.025,4.528c-0.435,0.58-0.76,1.247-0.91,1.983H12v2h2.101c0.13,0.637,0.384,1.229,0.732,1.753l-1.49,1.49l1.414,1.414l1.49-1.49  c0.524,0.348,1.116,0.602,1.753,0.732V50h2v-2.101c0.537-0.11,1.032-0.323,1.492-0.59l4.027,4.531C23.693,53.19,21.442,54,19,54  C12.935,54,8,49.065,8,43z M19,40c1.654,0,3,1.346,3,3c0,0.524-0.147,1.01-0.384,1.439l-3.746-4.214C18.22,40.082,18.6,40,19,40z   M20.13,45.775C19.78,45.918,19.4,46,19,46c-1.654,0-3-1.346-3-3c0-0.524,0.147-1.01,0.384-1.439L20.13,45.775z M30,43  c0,2.905-1.14,5.543-2.986,7.511l-4.025-4.528c0.435-0.58,0.76-1.247,0.91-1.983H26v-2h-2.101c-0.13-0.637-0.384-1.229-0.732-1.753  l1.54-1.54l-1.414-1.414l-1.54,1.54c-0.524-0.348-1.116-0.602-1.753-0.732V36h-2v2.101c-0.537,0.11-1.032,0.323-1.492,0.59  l-4.027-4.531C14.307,32.81,16.558,32,19,32C25.065,32,30,36.935,30,43z"/><path d="M34.896,14.293c1.294,0.134,2.594,0.361,3.863,0.676c0.299,0.075,0.614,0.007,0.856-0.184  C39.858,14.596,40,14.306,40,13.998V9.849c0-0.459-0.312-0.859-0.759-0.971c-1.358-0.338-2.751-0.581-4.14-0.725  c-3.397-0.347-6.793-0.108-10.116,0.701C24.907,7.269,23.604,6,22,6h-6c-1.654,0-3,1.346-3,3v8h-1c-0.553,0-1,0.447-1,1v4  c-4.963,0-9,4.037-9,9v30c0,0.553,0.447,1,1,1h32c0.553,0,1-0.447,1-1V31c0-4.963-4.037-9-9-9v-4c0-0.553-0.447-1-1-1h-1v-1.932  C28.249,14.22,31.575,13.953,34.896,14.293z M34.897,10.144c1.037,0.106,2.078,0.273,3.103,0.498v2.106  c-0.96-0.195-1.931-0.345-2.898-0.445C31.71,11.959,28.319,12.195,25,13v-2.082C28.245,10.07,31.57,9.804,34.897,10.144z M34,31v29  H4V31c0-3.859,3.141-7,7-7h16C30.859,24,34,27.141,34,31z M13,22v-3h12v3H13z M15,17V9c0-0.552,0.448-1,1-1h6c0.552,0,1,0.448,1,1v8  H15z"/><rect height="2" width="4" x="46" y="11"/><rect height="2" width="4" x="52" y="11"/><rect height="2" width="4" x="58" y="11"/><rect height="4.001" transform="matrix(0.2588 -0.9659 0.9659 0.2588 17.3253 57.6139)" width="2" x="45.205" y="15.517"/><rect height="4" transform="matrix(0.2588 -0.9659 0.9659 0.2588 20.121 64.3627)" width="2" x="51" y="17.071"/><rect height="4.001" transform="matrix(0.2588 -0.9659 0.9659 0.2588 22.9166 71.1115)" width="2" x="56.796" y="18.623"/><rect height="2" transform="matrix(0.9659 -0.2588 0.2588 0.9659 -0.1034 12.1794)" width="4.001" x="44.204" y="5.483"/><rect height="2" transform="matrix(0.9659 -0.2588 0.2588 0.9659 0.4959 13.6265)" width="4" x="50" y="3.93"/><rect height="2" transform="matrix(0.9659 -0.2588 0.2588 0.9659 1.0946 15.0699)" width="4.001" x="55.795" y="2.377"/><path d="M58.685,35.069c0.51-0.73,0.815-1.613,0.815-2.569c0-2.481-2.019-4.5-4.5-4.5s-4.5,2.019-4.5,4.5  c0,0.956,0.305,1.84,0.815,2.569C49.436,35.396,48,37.029,48,39v8c0,0.197,0.059,0.391,0.168,0.555L50,50.303V61  c0,0.553,0.447,1,1,1h8c0.553,0,1-0.447,1-1V50.303l1.832-2.748C61.941,47.391,62,47.197,62,47v-8  C62,37.029,60.564,35.396,58.685,35.069z M55,30c1.379,0,2.5,1.121,2.5,2.5S56.379,35,55,35s-2.5-1.121-2.5-2.5S53.621,30,55,30z   M60,46.697l-1.832,2.748C58.059,49.609,58,49.803,58,50v10h-6V50c0-0.197-0.059-0.391-0.168-0.555L50,46.697V39  c0-1.103,0.897-2,2-2h6c1.103,0,2,0.897,2,2V46.697z"/><path d="M49,28c0-0.476-0.281-0.908-0.716-1.103c-0.001-0.001-0.002-0.001-0.003-0.001c-1.771-0.784-2.394-1.407-3.179-3.181  C44.908,23.281,44.476,23,44,23s-0.908,0.281-1.104,0.719c-0.784,1.771-1.407,2.394-3.181,3.179C39.281,27.092,39,27.524,39,28  s0.281,0.908,0.719,1.104c1.771,0.784,2.394,1.407,3.178,3.178C43.09,32.718,43.523,33,44,33s0.91-0.282,1.104-0.719  c0.784-1.771,1.407-2.394,3.181-3.179C48.719,28.908,49,28.476,49,28z M44,30.075c-0.553-0.885-1.191-1.523-2.075-2.075  c0.885-0.553,1.523-1.191,2.075-2.075c0.553,0.885,1.191,1.522,2.075,2.075C45.19,28.553,44.553,29.19,44,30.075z"/></svg>